<?xml version="1.0" encoding="UTF-8"?>
<svg xmlns="http://www.w3.org/2000/svg" xmlns:xlink="http://www.w3.org/1999/xlink" width="70px" height="70px" viewBox="0 0 70 70" version="1.1">
<g id="surface1">
<path style=" stroke:none;fill-rule:nonzero;fill:rgb(0%,0%,0%);fill-opacity:1;" d="M 49.582031 17.675781 C 45.414062 17.679688 41.824219 20.625 41.007812 24.714844 C 40.191406 28.804688 42.378906 32.902344 46.230469 34.503906 C 45.320312 36.679688 43.191406 38.097656 40.832031 38.089844 L 29.167969 38.089844 C 27.109375 38.101562 25.09375 38.664062 23.332031 39.726562 L 23.332031 22.984375 C 27.351562 21.5625 29.761719 17.453125 29.039062 13.253906 C 28.320312 9.054688 24.679688 5.984375 20.417969 5.984375 C 16.15625 5.984375 12.511719 9.054688 11.792969 13.253906 C 11.070312 17.453125 13.480469 21.5625 17.5 22.984375 L 17.5 47.367188 C 13.535156 48.792969 11.148438 52.84375 11.824219 57.003906 C 12.5 61.164062 16.046875 64.25 20.257812 64.347656 C 24.472656 64.445312 28.15625 61.527344 29.023438 57.402344 C 29.890625 53.277344 27.695312 49.121094 23.800781 47.511719 C 24.703125 45.34375 26.820312 43.933594 29.167969 43.925781 L 40.832031 43.925781 C 46.332031 43.925781 51.082031 40.085938 52.238281 34.707031 C 56.261719 33.339844 58.722656 29.277344 58.066406 25.078125 C 57.414062 20.875 53.835938 17.753906 49.582031 17.675781 Z M 20.417969 11.839844 C 22.027344 11.839844 23.332031 13.148438 23.332031 14.757812 C 23.332031 16.371094 22.027344 17.675781 20.417969 17.675781 C 18.804688 17.675781 17.5 16.371094 17.5 14.757812 C 17.5 13.148438 18.804688 11.839844 20.417969 11.839844 Z M 20.417969 58.507812 C 18.804688 58.507812 17.5 57.203125 17.5 55.589844 C 17.5 53.980469 18.804688 52.675781 20.417969 52.675781 C 22.027344 52.675781 23.332031 53.980469 23.332031 55.589844 C 23.332031 57.203125 22.027344 58.507812 20.417969 58.507812 Z M 49.582031 29.339844 C 47.972656 29.339844 46.667969 28.035156 46.667969 26.425781 C 46.667969 24.8125 47.972656 23.507812 49.582031 23.507812 C 51.195312 23.507812 52.5 24.8125 52.5 26.425781 C 52.5 28.035156 51.195312 29.339844 49.582031 29.339844 Z M 49.582031 29.339844 "/>
</g>
</svg>
