<?xml version="1.0" encoding="UTF-8"?>
<svg xmlns="http://www.w3.org/2000/svg" xmlns:xlink="http://www.w3.org/1999/xlink" width="60px" height="60px" viewBox="0 0 60 60" version="1.1">
<g id="surface1">
<path style=" stroke:none;fill-rule:nonzero;fill:rgb(0%,0%,0%);fill-opacity:1;" d="M 56.25 28.125 L 56.25 31.875 L 11.25 31.875 L 11.25 11.25 L 30 11.25 L 30 7.5 L 9.375 7.5 C 8.339844 7.5 7.5 8.339844 7.5 9.375 L 7.5 31.875 L 3.75 31.875 L 3.75 5.625 C 3.75 4.589844 4.589844 3.75 5.625 3.75 L 33.75 3.75 L 33.75 0 L 5.625 0 C 2.519531 0 0 2.519531 0 5.625 L 0 43.125 C 0 44.160156 0.839844 45 1.875 45 L 18.46875 45 L 17.136719 54.375 L 15 54.375 C 13.964844 54.375 13.125 55.214844 13.125 56.25 L 9.375 56.25 L 9.375 60 L 50.625 60 L 50.625 56.25 L 46.875 56.25 C 46.875 55.214844 46.035156 54.375 45 54.375 L 42.882812 54.375 L 41.550781 45 L 58.125 45 C 59.160156 45 60 44.160156 60 43.125 L 60 28.125 Z M 20.90625 54.375 L 22.238281 45 L 37.742188 45 L 39.074219 54.375 Z M 56.25 41.25 L 3.75 41.25 L 3.75 35.625 L 56.25 35.625 Z M 56.25 41.25 "/>
<path style=" stroke:none;fill-rule:nonzero;fill:rgb(0%,0%,0%);fill-opacity:1;" d="M 40.445312 16.875 L 38.0625 19.257812 L 40.707031 21.898438 L 43.125 19.554688 C 43.710938 19.902344 44.34375 20.167969 45 20.34375 L 45 24.375 L 48.75 24.375 L 48.75 20.363281 C 49.40625 20.1875 50.039062 19.921875 50.625 19.574219 L 53.007812 21.957031 L 55.648438 19.3125 L 53.304688 16.875 C 53.652344 16.289062 53.917969 15.65625 54.09375 15 L 58.125 15 L 58.125 11.25 L 54.113281 11.25 C 53.9375 10.59375 53.671875 9.960938 53.324219 9.375 L 55.707031 6.992188 L 53.042969 4.292969 L 50.625 6.695312 C 50.039062 6.347656 49.40625 6.082031 48.75 5.90625 L 48.75 1.875 L 45 1.875 L 45 5.886719 C 44.34375 6.0625 43.710938 6.328125 43.125 6.675781 L 40.707031 4.292969 L 38.042969 6.957031 L 40.445312 9.375 C 40.097656 9.960938 39.832031 10.59375 39.65625 11.25 L 35.625 11.25 L 35.625 15 L 39.636719 15 C 39.820312 15.660156 40.089844 16.289062 40.445312 16.875 Z M 46.875 9.375 C 48.945312 9.375 50.625 11.054688 50.625 13.125 C 50.625 15.195312 48.945312 16.875 46.875 16.875 C 44.804688 16.875 43.125 15.195312 43.125 13.125 C 43.125 11.054688 44.804688 9.375 46.875 9.375 Z M 46.875 9.375 "/>
</g>
</svg>
