<?xml version="1.0" encoding="UTF-8"?>
<svg xmlns="http://www.w3.org/2000/svg" xmlns:xlink="http://www.w3.org/1999/xlink" width="70px" height="70px" viewBox="0 0 70 70" version="1.1">
<g id="surface1">
<path style=" stroke:none;fill-rule:nonzero;fill:rgb(0%,0%,0%);fill-opacity:1;" d="M 10.207031 49.582031 L 59.792969 49.582031 C 61.402344 49.582031 62.707031 48.277344 62.707031 46.667969 L 62.707031 11.667969 C 62.707031 10.054688 61.402344 8.75 59.792969 8.75 L 10.207031 8.75 C 8.597656 8.75 7.292969 10.054688 7.292969 11.667969 L 7.292969 46.667969 C 7.292969 48.277344 8.597656 49.582031 10.207031 49.582031 Z M 56.875 14.582031 L 56.875 43.75 L 13.125 43.75 L 13.125 14.582031 "/>
<path style=" stroke:none;fill-rule:nonzero;fill:rgb(0%,0%,0%);fill-opacity:1;" d="M 64.167969 55.417969 L 5.832031 55.417969 C 4.222656 55.417969 2.917969 56.722656 2.917969 58.332031 C 2.917969 59.945312 4.222656 61.25 5.832031 61.25 L 64.167969 61.25 C 65.777344 61.25 67.082031 59.945312 67.082031 58.332031 C 67.082031 56.722656 65.777344 55.417969 64.167969 55.417969 Z M 64.167969 55.417969 "/>
<path style=" stroke:none;fill-rule:nonzero;fill:rgb(0%,0%,0%);fill-opacity:1;" d="M 43.019531 18.375 C 41.953125 17.332031 40.292969 17.207031 39.082031 18.082031 C 38.371094 18.5625 37.921875 19.34375 37.863281 20.199219 C 37.804688 21.054688 38.148438 21.890625 38.792969 22.457031 L 45.5 29.167969 L 38.792969 35.875 C 38.148438 36.445312 37.804688 37.277344 37.863281 38.132812 C 37.921875 38.988281 38.371094 39.773438 39.082031 40.25 C 40.292969 41.125 41.953125 41 43.019531 39.957031 L 51.625 31.207031 C 52.195312 30.683594 52.523438 29.941406 52.523438 29.167969 C 52.523438 28.390625 52.195312 27.648438 51.625 27.125 Z M 43.019531 18.375 "/>
<path style=" stroke:none;fill-rule:nonzero;fill:rgb(0%,0%,0%);fill-opacity:1;" d="M 30.917969 18.082031 C 29.707031 17.207031 28.046875 17.332031 26.980469 18.375 L 18.375 27.125 C 17.804688 27.648438 17.476562 28.390625 17.476562 29.167969 C 17.476562 29.941406 17.804688 30.683594 18.375 31.207031 L 26.980469 39.957031 C 28.046875 41 29.707031 41.125 30.917969 40.25 C 31.628906 39.773438 32.078125 38.988281 32.136719 38.132812 C 32.195312 37.277344 31.851562 36.445312 31.207031 35.875 L 24.5 29.167969 L 31.207031 22.457031 C 31.851562 21.890625 32.195312 21.054688 32.136719 20.199219 C 32.078125 19.34375 31.628906 18.5625 30.917969 18.082031 Z M 30.917969 18.082031 "/>
</g>
</svg>
