<?xml version="1.0" encoding="UTF-8"?>
<svg xmlns="http://www.w3.org/2000/svg" xmlns:xlink="http://www.w3.org/1999/xlink" width="70px" height="70px" viewBox="0 0 70 70" version="1.1">
<g id="surface1">
<path style=" stroke:none;fill-rule:nonzero;fill:rgb(84.705882%,83.921569%,84.313725%);fill-opacity:1;" d="M 52.738281 2.574219 L 52.738281 10.320312 L 44.90625 10.320312 L 44.90625 2.574219 C 44.90625 1.820312 45.519531 1.207031 46.273438 1.207031 L 51.371094 1.207031 C 52.125 1.207031 52.738281 1.820312 52.738281 2.574219 Z M 52.738281 2.574219 "/>
<path style=" stroke:none;fill-rule:nonzero;fill:rgb(84.705882%,83.921569%,84.313725%);fill-opacity:1;" d="M 49.433594 36.707031 L 48.210938 36.707031 C 47.457031 36.707031 46.84375 36.097656 46.84375 35.339844 L 46.84375 27.59375 L 50.800781 27.59375 L 50.800781 35.339844 C 50.800781 36.097656 50.1875 36.707031 49.433594 36.707031 Z M 49.433594 36.707031 "/>
<path style=" stroke:none;fill-rule:nonzero;fill:rgb(84.313725%,21.568627%,20.784314%);fill-opacity:1;" d="M 55.484375 7.128906 L 55.484375 25.484375 C 55.484375 28.613281 53.332031 31.234375 50.429688 31.953125 C 49.914062 32.082031 49.378906 32.148438 48.820312 32.148438 C 45.140625 32.148438 42.160156 29.167969 42.160156 25.484375 L 42.160156 7.128906 C 42.160156 6.375 42.769531 5.761719 43.527344 5.761719 L 54.117188 5.761719 C 54.875 5.761719 55.484375 6.375 55.484375 7.128906 Z M 55.484375 7.128906 "/>
<path style=" stroke:none;fill-rule:nonzero;fill:rgb(100%,100%,100%);fill-opacity:1;" d="M 52.738281 2.574219 L 52.738281 10.320312 L 48.121094 10.320312 L 48.121094 2.574219 C 48.121094 1.820312 48.730469 1.207031 49.488281 1.207031 L 51.371094 1.207031 C 52.125 1.207031 52.738281 1.820312 52.738281 2.574219 Z M 52.738281 2.574219 "/>
<path style=" stroke:none;fill-rule:nonzero;fill:rgb(97.254902%,32.156863%,32.156863%);fill-opacity:1;" d="M 55.484375 7.128906 L 55.484375 25.484375 C 55.484375 28.613281 53.332031 31.234375 50.429688 31.953125 C 47.523438 31.238281 45.371094 28.613281 45.371094 25.484375 L 45.371094 7.128906 C 45.371094 6.375 45.984375 5.761719 46.738281 5.761719 L 54.117188 5.761719 C 54.875 5.761719 55.484375 6.375 55.484375 7.128906 Z M 55.484375 7.128906 "/>
<path style=" stroke:none;fill-rule:nonzero;fill:rgb(84.705882%,83.921569%,84.313725%);fill-opacity:1;" d="M 25.09375 24.109375 L 25.09375 31.855469 L 17.261719 31.855469 L 17.261719 24.109375 C 17.261719 23.355469 17.875 22.742188 18.628906 22.742188 L 23.726562 22.742188 C 24.480469 22.742188 25.09375 23.355469 25.09375 24.109375 Z M 25.09375 24.109375 "/>
<path style=" stroke:none;fill-rule:nonzero;fill:rgb(84.705882%,83.921569%,84.313725%);fill-opacity:1;" d="M 21.789062 58.242188 L 20.566406 58.242188 C 19.8125 58.242188 19.199219 57.628906 19.199219 56.875 L 19.199219 49.128906 L 23.15625 49.128906 L 23.15625 56.875 C 23.15625 57.628906 22.542969 58.242188 21.789062 58.242188 Z M 21.789062 58.242188 "/>
<path style=" stroke:none;fill-rule:nonzero;fill:rgb(84.313725%,21.568627%,20.784314%);fill-opacity:1;" d="M 27.839844 28.664062 L 27.839844 47.019531 C 27.839844 50.144531 25.6875 52.765625 22.785156 53.488281 C 22.273438 53.613281 21.734375 53.683594 21.179688 53.683594 C 17.496094 53.683594 14.515625 50.699219 14.515625 47.019531 L 14.515625 28.664062 C 14.515625 27.910156 15.125 27.296875 15.882812 27.296875 L 26.472656 27.296875 C 27.230469 27.296875 27.839844 27.910156 27.839844 28.664062 Z M 27.839844 28.664062 "/>
<path style=" stroke:none;fill-rule:nonzero;fill:rgb(100%,100%,100%);fill-opacity:1;" d="M 25.09375 24.109375 L 25.09375 31.855469 L 20.476562 31.855469 L 20.476562 24.109375 C 20.476562 23.355469 21.085938 22.742188 21.84375 22.742188 L 23.726562 22.742188 C 24.480469 22.742188 25.09375 23.355469 25.09375 24.109375 Z M 25.09375 24.109375 "/>
<path style=" stroke:none;fill-rule:nonzero;fill:rgb(97.254902%,32.156863%,32.156863%);fill-opacity:1;" d="M 27.839844 28.664062 L 27.839844 47.019531 C 27.839844 50.144531 25.6875 52.765625 22.785156 53.488281 C 19.878906 52.769531 17.726562 50.148438 17.726562 47.019531 L 17.726562 28.664062 C 17.726562 27.910156 18.339844 27.296875 19.09375 27.296875 L 26.472656 27.296875 C 27.230469 27.296875 27.839844 27.910156 27.839844 28.664062 Z M 27.839844 28.664062 "/>
<path style=" stroke:none;fill-rule:nonzero;fill:rgb(28.627451%,7.45098%,32.156863%);fill-opacity:1;" d="M 54.117188 5.214844 L 53.285156 5.214844 L 53.285156 2.574219 C 53.285156 1.519531 52.425781 0.660156 51.371094 0.660156 L 46.273438 0.660156 C 45.21875 0.660156 44.359375 1.519531 44.359375 2.574219 L 44.359375 5.214844 L 43.527344 5.214844 C 42.46875 5.214844 41.613281 6.074219 41.613281 7.128906 L 41.613281 25.488281 C 41.613281 28.574219 43.5625 31.214844 46.296875 32.242188 L 46.296875 35.339844 C 46.296875 36.332031 47.070312 37.253906 48.273438 37.253906 L 48.273438 67.425781 C 48.273438 67.875 47.90625 68.246094 47.453125 68.246094 L 22.546875 68.246094 C 22.09375 68.246094 21.726562 67.875 21.726562 67.425781 L 21.726562 58.789062 C 22.921875 58.789062 23.703125 57.875 23.703125 56.875 L 23.703125 53.773438 C 26.4375 52.75 28.386719 50.105469 28.386719 47.019531 L 28.386719 28.664062 C 28.386719 27.609375 27.53125 26.75 26.472656 26.75 L 25.640625 26.75 L 25.640625 24.109375 C 25.640625 23.054688 24.78125 22.195312 23.726562 22.195312 L 18.628906 22.195312 C 17.574219 22.195312 16.714844 23.054688 16.714844 24.109375 L 16.714844 26.75 L 15.882812 26.75 C 14.824219 26.75 13.96875 27.609375 13.96875 28.664062 L 13.96875 47.019531 C 13.96875 50.105469 15.917969 52.75 18.652344 53.773438 L 18.652344 56.875 C 18.652344 57.863281 19.421875 58.789062 20.632812 58.789062 L 20.632812 67.425781 C 20.632812 68.480469 21.488281 69.339844 22.546875 69.339844 L 47.453125 69.339844 C 48.511719 69.339844 49.367188 68.480469 49.367188 67.425781 L 49.367188 37.253906 C 50.566406 37.253906 51.347656 36.339844 51.347656 35.339844 L 51.347656 32.242188 C 54.082031 31.214844 56.03125 28.574219 56.03125 25.488281 L 56.03125 7.128906 C 56.03125 6.074219 55.175781 5.214844 54.117188 5.214844 Z M 17.808594 24.109375 C 17.808594 23.65625 18.179688 23.289062 18.628906 23.289062 L 23.726562 23.289062 C 24.179688 23.289062 24.546875 23.65625 24.546875 24.109375 L 24.546875 26.75 L 17.808594 26.75 Z M 15.0625 47.019531 L 15.0625 28.664062 C 15.0625 28.210938 15.425781 27.84375 15.882812 27.84375 L 26.472656 27.84375 C 26.929688 27.84375 27.292969 28.210938 27.292969 28.664062 L 27.292969 47.019531 C 27.292969 49.496094 25.820312 51.628906 23.703125 52.589844 C 19.6875 54.421875 15.0625 51.476562 15.0625 47.019531 Z M 19.746094 54.085938 C 20.679688 54.277344 21.671875 54.277344 22.609375 54.085938 L 22.609375 56.875 C 22.609375 57.324219 22.242188 57.695312 21.789062 57.695312 C 19.402344 57.695312 19.746094 57.921875 19.746094 54.085938 Z M 45.453125 2.574219 C 45.453125 2.121094 45.820312 1.753906 46.273438 1.753906 L 51.371094 1.753906 C 51.820312 1.753906 52.191406 2.121094 52.191406 2.574219 L 52.191406 5.214844 L 45.453125 5.214844 Z M 48.210938 36.160156 C 47.757812 36.160156 47.390625 35.792969 47.390625 35.339844 L 47.390625 32.550781 C 48.324219 32.746094 49.316406 32.746094 50.253906 32.550781 C 50.253906 36.441406 50.554688 36.160156 48.210938 36.160156 Z M 54.9375 25.488281 C 54.9375 27.960938 53.464844 30.097656 51.347656 31.054688 C 47.292969 32.90625 42.707031 29.902344 42.707031 25.488281 L 42.707031 7.128906 C 42.707031 6.679688 43.070312 6.308594 43.527344 6.308594 L 54.117188 6.308594 C 54.574219 6.308594 54.9375 6.679688 54.9375 7.128906 Z M 54.9375 25.488281 "/>
<path style=" stroke:none;fill-rule:nonzero;fill:rgb(28.627451%,7.45098%,32.156863%);fill-opacity:1;" d="M 47.585938 2.972656 L 46.757812 2.972656 C 46.035156 2.972656 46.035156 4.066406 46.757812 4.066406 L 47.585938 4.066406 C 48.308594 4.066406 48.308594 2.972656 47.585938 2.972656 Z M 47.585938 2.972656 "/>
<path style=" stroke:none;fill-rule:nonzero;fill:rgb(28.627451%,7.45098%,32.156863%);fill-opacity:1;" d="M 50.886719 2.972656 L 50.058594 2.972656 C 49.335938 2.972656 49.335938 4.066406 50.058594 4.066406 L 50.886719 4.066406 C 51.609375 4.066406 51.609375 2.972656 50.886719 2.972656 Z M 50.886719 2.972656 "/>
<path style=" stroke:none;fill-rule:nonzero;fill:rgb(28.627451%,7.45098%,32.156863%);fill-opacity:1;" d="M 19.941406 24.507812 L 19.113281 24.507812 C 18.390625 24.507812 18.390625 25.601562 19.113281 25.601562 L 19.941406 25.601562 C 20.664062 25.601562 20.664062 24.507812 19.941406 24.507812 Z M 19.941406 24.507812 "/>
<path style=" stroke:none;fill-rule:nonzero;fill:rgb(28.627451%,7.45098%,32.156863%);fill-opacity:1;" d="M 23.242188 24.507812 L 22.414062 24.507812 C 21.691406 24.507812 21.691406 25.601562 22.414062 25.601562 L 23.242188 25.601562 C 23.964844 25.601562 23.964844 24.507812 23.242188 24.507812 Z M 23.242188 24.507812 "/>
</g>
</svg>
