<?xml version="1.0" encoding="UTF-8"?>
<svg xmlns="http://www.w3.org/2000/svg" xmlns:xlink="http://www.w3.org/1999/xlink" width="15px" height="15px" viewBox="0 0 15 15" version="1.1">
<g id="surface1">
<path style=" stroke:none;fill-rule:nonzero;fill:rgb(0%,0%,0%);fill-opacity:1;" d="M 7.5 1.40625 C 4.132812 1.40625 1.40625 4.132812 1.40625 7.5 C 1.40625 10.867188 4.132812 13.59375 7.5 13.59375 C 10.867188 13.59375 13.59375 10.867188 13.59375 7.5 C 13.589844 4.136719 10.863281 1.410156 7.5 1.40625 Z M 7.5 12.65625 C 4.652344 12.65625 2.34375 10.347656 2.34375 7.5 C 2.34375 4.652344 4.652344 2.34375 7.5 2.34375 C 10.347656 2.34375 12.65625 4.652344 12.65625 7.5 C 12.652344 10.347656 10.347656 12.652344 7.5 12.65625 Z M 5.625 7.5 C 5.625 8.308594 6.140625 9.023438 6.90625 9.277344 C 7.671875 9.535156 8.515625 9.269531 9 8.625 C 9.15625 8.417969 9.449219 8.378906 9.65625 8.53125 C 9.863281 8.6875 9.902344 8.980469 9.75 9.1875 C 9.023438 10.15625 7.757812 10.550781 6.609375 10.167969 C 5.460938 9.785156 4.6875 8.710938 4.6875 7.5 C 4.6875 6.289062 5.460938 5.214844 6.609375 4.832031 C 7.757812 4.449219 9.023438 4.84375 9.75 5.8125 C 9.902344 6.019531 9.863281 6.3125 9.65625 6.464844 C 9.449219 6.621094 9.15625 6.582031 9 6.375 C 8.515625 5.730469 7.671875 5.464844 6.90625 5.722656 C 6.140625 5.976562 5.625 6.691406 5.625 7.5 Z M 5.625 7.5 "/>
</g>
</svg>
