<?xml version="1.0" encoding="UTF-8"?>
<svg xmlns="http://www.w3.org/2000/svg" xmlns:xlink="http://www.w3.org/1999/xlink" width="65px" height="65px" viewBox="0 0 65 65" version="1.1">
<g id="surface1">
<path style=" stroke:none;fill-rule:nonzero;fill:rgb(14.901961%,30.196078%,89.411765%);fill-opacity:1;" d="M 30.691406 64.796875 L 5.679688 58.386719 L 0.105469 0.683594 L 61.351562 0.683594 L 55.773438 58.378906 Z M 30.691406 64.796875 "/>
<path style=" stroke:none;fill-rule:nonzero;fill:rgb(16.078431%,39.607843%,94.509804%);fill-opacity:1;" d="M 50.996094 54.707031 L 55.765625 5.402344 L 30.730469 5.402344 L 30.730469 59.890625 Z M 50.996094 54.707031 "/>
<path style=" stroke:none;fill-rule:nonzero;fill:rgb(92.156863%,92.156863%,92.156863%);fill-opacity:1;" d="M 12.882812 26.804688 L 13.570312 33.878906 L 30.730469 33.878906 L 30.730469 26.804688 Z M 12.882812 26.804688 "/>
<path style=" stroke:none;fill-rule:nonzero;fill:rgb(92.156863%,92.156863%,92.156863%);fill-opacity:1;" d="M 11.503906 12.476562 L 12.199219 19.554688 L 30.730469 19.554688 L 30.730469 12.476562 Z M 11.503906 12.476562 "/>
<path style=" stroke:none;fill-rule:nonzero;fill:rgb(92.156863%,92.156863%,92.156863%);fill-opacity:1;" d="M 30.730469 45.183594 L 30.695312 45.191406 L 22.15625 43.0625 L 21.609375 37.417969 L 13.914062 37.417969 L 14.988281 48.53125 L 30.695312 52.554688 L 30.730469 52.546875 Z M 30.730469 45.183594 "/>
<path style=" stroke:none;fill-rule:nonzero;fill:rgb(100%,100%,100%);fill-opacity:1;" d="M 48.523438 26.804688 L 49.910156 12.476562 L 30.703125 12.476562 L 30.703125 19.554688 L 41.507812 19.554688 L 40.808594 26.804688 L 30.703125 26.804688 L 30.703125 33.878906 L 40.144531 33.878906 L 39.253906 43.058594 L 30.703125 45.191406 L 30.703125 52.554688 L 46.421875 48.53125 L 46.535156 47.335938 L 48.339844 28.703125 Z M 48.523438 26.804688 "/>
</g>
</svg>
