<?xml version="1.0" encoding="UTF-8"?>
<svg xmlns="http://www.w3.org/2000/svg" xmlns:xlink="http://www.w3.org/1999/xlink" width="35px" height="35px" viewBox="0 0 35 35" version="1.1">
<g id="surface1">
<path style=" stroke:none;fill-rule:nonzero;fill:rgb(13.72549%,12.156863%,12.54902%);fill-opacity:1;" d="M 17.5 1.457031 C 8.734375 1.371094 1.554688 8.398438 1.457031 17.164062 C 1.492188 23.988281 5.921875 30.015625 12.425781 32.082031 C 13.226562 32.230469 13.519531 31.746094 13.519531 31.324219 C 13.519531 30.902344 13.519531 29.96875 13.519531 28.65625 C 9.054688 29.605469 8.109375 26.554688 8.109375 26.554688 C 7.8125 25.597656 7.179688 24.78125 6.328125 24.253906 C 4.871094 23.289062 6.445312 23.304688 6.445312 23.304688 C 7.46875 23.441406 8.371094 24.035156 8.894531 24.921875 C 9.835938 26.554688 11.914062 27.132812 13.5625 26.222656 C 13.644531 25.421875 14.003906 24.679688 14.582031 24.121094 C 11.023438 23.726562 7.292969 22.386719 7.292969 16.363281 C 7.261719 14.792969 7.839844 13.269531 8.910156 12.117188 C 8.421875 10.769531 8.480469 9.285156 9.070312 7.976562 C 9.070312 7.976562 10.425781 7.554688 13.445312 9.582031 C 16.074219 8.882812 18.839844 8.882812 21.464844 9.582031 C 24.527344 7.554688 25.839844 7.976562 25.839844 7.976562 C 26.433594 9.285156 26.488281 10.769531 26.003906 12.117188 C 27.097656 13.25 27.710938 14.761719 27.707031 16.332031 C 27.707031 22.371094 23.945312 23.699219 20.417969 24.089844 C 21.199219 24.851562 21.601562 25.921875 21.511719 27.007812 L 21.511719 31.308594 C 21.511719 31.308594 21.800781 32.230469 22.605469 32.070312 C 29.089844 29.988281 33.5 23.976562 33.542969 17.164062 C 33.445312 8.398438 26.265625 1.371094 17.5 1.457031 "/>
</g>
</svg>
