<?xml version="1.0" encoding="UTF-8"?>
<svg xmlns="http://www.w3.org/2000/svg" xmlns:xlink="http://www.w3.org/1999/xlink" width="20px" height="20px" viewBox="0 0 20 20" version="1.1">
<g id="surface1">
<path style=" stroke:none;fill-rule:nonzero;fill:rgb(0%,0%,0%);fill-opacity:1;" d="M 10 12.5 C 8.179688 12.515625 6.363281 12.335938 4.582031 11.957031 L 2.917969 11.5 L 2.917969 16.75 C 2.90625 17.128906 3.171875 17.460938 3.542969 17.542969 L 8.542969 18.75 C 8.871094 18.789062 9.199219 18.664062 9.417969 18.417969 L 10 17.707031 L 10.582031 18.417969 C 10.746094 18.621094 10.988281 18.742188 11.25 18.75 L 11.457031 18.75 L 16.457031 17.542969 C 16.828125 17.460938 17.09375 17.128906 17.082031 16.75 L 17.082031 11.5 L 15.417969 11.957031 C 13.636719 12.335938 11.820312 12.515625 10 12.5 Z M 7.082031 15.832031 C 6.25 15.832031 5.417969 15.042969 5.417969 14.582031 C 5.417969 14.125 6.25 14.167969 7.082031 14.167969 C 7.917969 14.167969 8.75 14.542969 8.75 15 C 8.75 15.457031 7.917969 15.832031 7.082031 15.832031 Z M 12.917969 15.832031 C 12.082031 15.832031 11.25 15.457031 11.25 15 C 11.25 14.542969 12.082031 14.167969 12.917969 14.167969 C 13.75 14.167969 14.582031 14.125 14.582031 14.582031 C 14.582031 15.042969 13.75 15.832031 12.917969 15.832031 Z M 12.917969 15.832031 "/>
<path style=" stroke:none;fill-rule:nonzero;fill:rgb(0%,0%,0%);fill-opacity:1;" d="M 16.417969 6.667969 L 15.542969 2.582031 C 15.382812 1.808594 14.707031 1.253906 13.917969 1.25 L 12.125 1.25 C 11.546875 1.242188 11.003906 1.542969 10.707031 2.042969 L 10 3.25 L 9.292969 2.042969 C 8.996094 1.542969 8.453125 1.242188 7.875 1.25 L 6.082031 1.25 C 5.292969 1.253906 4.617188 1.808594 4.457031 2.582031 L 3.582031 6.667969 C 1.875 7.207031 0.832031 7.917969 0.832031 8.75 C 0.832031 10.375 4.917969 11.667969 10 11.667969 C 15.082031 11.667969 19.167969 10.375 19.167969 8.75 C 19.167969 7.917969 18.125 7.207031 16.417969 6.667969 Z M 16.417969 6.667969 "/>
</g>
</svg>
