<?xml version="1.0" encoding="UTF-8"?>
<svg xmlns="http://www.w3.org/2000/svg" xmlns:xlink="http://www.w3.org/1999/xlink" width="67px" height="67px" viewBox="0 0 67 67" version="1.1">
<g id="surface1">
<path style=" stroke:none;fill-rule:nonzero;fill:rgb(96.862745%,87.45098%,11.764706%);fill-opacity:1;" d="M 10.050781 0 L 56.949219 0 C 62.5 0 67 4.5 67 10.050781 L 67 56.949219 C 67 62.5 62.5 67 56.949219 67 L 10.050781 67 C 4.5 67 0 62.5 0 56.949219 L 0 10.050781 C 0 4.5 4.5 0 10.050781 0 Z M 10.050781 0 "/>
<path style=" stroke:none;fill-rule:nonzero;fill:rgb(0%,0%,0%);fill-opacity:1;" d="M 42.398438 48.417969 C 43.707031 50.640625 45.539062 52.210938 48.546875 52.210938 C 51.164062 52.210938 52.867188 50.90625 52.867188 49.070312 C 52.867188 46.976562 51.164062 46.195312 48.289062 44.882812 L 46.71875 44.230469 C 42.136719 42.265625 39.125 39.914062 39.125 34.808594 C 39.125 30.097656 42.660156 26.433594 48.289062 26.433594 C 52.34375 26.433594 55.222656 27.875 57.1875 31.539062 L 52.34375 34.679688 C 51.296875 32.714844 50.117188 31.929688 48.289062 31.929688 C 46.453125 31.929688 45.277344 33.109375 45.277344 34.679688 C 45.277344 36.507812 46.453125 37.296875 49.203125 38.472656 L 50.773438 39.125 C 56.140625 41.484375 59.148438 43.707031 59.148438 49.070312 C 59.148438 54.699219 54.699219 57.839844 48.679688 57.839844 C 42.789062 57.839844 38.996094 55.09375 37.164062 51.429688 Z M 20.152344 48.941406 C 21.199219 50.640625 21.984375 52.210938 24.210938 52.210938 C 26.304688 52.210938 27.609375 51.429688 27.609375 48.289062 L 27.609375 26.5625 L 33.890625 26.5625 L 33.890625 48.023438 C 33.890625 54.570312 30.097656 57.445312 24.46875 57.445312 C 19.367188 57.445312 16.488281 54.828125 15.046875 51.6875 Z M 20.152344 48.941406 "/>
</g>
</svg>
