<?xml version="1.0" encoding="UTF-8"?>
<svg xmlns="http://www.w3.org/2000/svg" xmlns:xlink="http://www.w3.org/1999/xlink" width="40px" height="25px" viewBox="0 0 40 25" version="1.1">
<g id="surface1">
<rect x="0" y="0" width="40" height="25" style="fill:rgb(100%,100%,100%);fill-opacity:1;stroke:none;"/>
<path style=" stroke:none;fill-rule:nonzero;fill:rgb(0%,0%,0%);fill-opacity:1;" d="M 0 0 L 40 0 L 40 7.5 L 0 7.5 Z M 0 0 "/>
<path style=" stroke:none;fill-rule:nonzero;fill:rgb(0%,40%,0%);fill-opacity:1;" d="M 0 17.5 L 40 17.5 L 40 25 L 0 25 Z M 0 17.5 "/>
<path style="fill-rule:nonzero;fill:rgb(0%,0%,0%);fill-opacity:1;stroke-width:1;stroke-linecap:butt;stroke-linejoin:miter;stroke:rgb(0%,0%,0%);stroke-opacity:1;stroke-miterlimit:10;" d="M -28.604167 47.5 L -26.791667 48.5 L 19.895833 -32.5 C 22.604167 -33.1 24.104167 -35.7 25.604167 -38.3 C 26.604167 -40.1 30.604167 -47 32.291667 -56 C 27.5625 -51.775 23.541667 -46.825 20.395833 -41.3 C 18.895833 -38.7 17.395833 -36.1 18.104167 -33.4 Z M -28.604167 47.5 " transform="matrix(0.1875,0,0,0.15625,20,12.5)"/>
<path style=" stroke:none;fill-rule:nonzero;fill:rgb(100%,100%,100%);fill-opacity:1;" d="M 14.636719 19.921875 L 14.976562 20.078125 L 23.730469 7.421875 C 24.238281 7.328125 24.519531 6.921875 24.800781 6.515625 C 24.988281 6.234375 25.738281 5.15625 26.054688 3.75 C 25.167969 4.410156 24.414062 5.183594 23.824219 6.046875 C 23.542969 6.453125 23.261719 6.859375 23.394531 7.28125 Z M 14.636719 19.921875 "/>
<path style="fill-rule:nonzero;fill:rgb(0%,0%,0%);fill-opacity:1;stroke-width:1;stroke-linecap:butt;stroke-linejoin:miter;stroke:rgb(0%,0%,0%);stroke-opacity:1;stroke-miterlimit:10;" d="M -28.604167 47.5 L -26.791667 48.5 L 19.895833 -32.5 C 22.604167 -33.1 24.104167 -35.7 25.604167 -38.3 C 26.604167 -40.1 30.604167 -47 32.291667 -56 C 27.5625 -51.775 23.541667 -46.825 20.395833 -41.3 C 18.895833 -38.7 17.395833 -36.1 18.104167 -33.4 Z M -28.604167 47.5 " transform="matrix(-0.1875,0,0,0.15625,20,12.5)"/>
<path style=" stroke:none;fill-rule:nonzero;fill:rgb(100%,100%,100%);fill-opacity:1;" d="M 25.363281 19.921875 L 25.023438 20.078125 L 16.269531 7.421875 C 15.761719 7.328125 15.480469 6.921875 15.199219 6.515625 C 15.011719 6.234375 14.261719 5.15625 13.945312 3.75 C 14.832031 4.410156 15.585938 5.183594 16.175781 6.046875 C 16.457031 6.453125 16.738281 6.859375 16.605469 7.28125 Z M 25.363281 19.921875 "/>
<path style=" stroke:none;fill-rule:nonzero;fill:rgb(73.333333%,0%,0%);fill-opacity:1;" d="M 40.03125 8.75 L 23.5625 8.75 C 23 7.5 21.125 5 20 5 C 18.875 5 17 7.5 16.4375 8.75 L -0.0117188 8.75 L -0.0117188 16.25 L 16.4375 16.25 C 17 17.5 18.875 20 20 20 C 21.125 20 23 17.5 23.5625 16.25 L 40.03125 16.25 Z M 40.03125 8.75 "/>
<path style=" stroke:none;fill-rule:nonzero;fill:rgb(0%,0%,0%);fill-opacity:1;" d="M 23.5625 16.25 C 24.125 15 24.5 13.75 24.5 12.5 C 24.5 11.25 24.125 10 23.5625 8.75 C 23 10 22.625 11.25 22.625 12.5 C 22.625 13.75 23 15 23.5625 16.25 "/>
<path style=" stroke:none;fill-rule:nonzero;fill:rgb(0%,0%,0%);fill-opacity:1;" d="M 16.4375 16.25 C 15.875 15 15.5 13.75 15.5 12.5 C 15.5 11.25 15.875 10 16.4375 8.75 C 17 10 17.375 11.25 17.375 12.5 C 17.375 13.75 17 15 16.4375 16.25 "/>
<path style=" stroke:none;fill-rule:nonzero;fill:rgb(100%,100%,100%);fill-opacity:1;" d="M 20.75 12.5 C 20.75 11.980469 20.414062 11.5625 20 11.5625 C 19.585938 11.5625 19.25 11.980469 19.25 12.5 C 19.25 13.019531 19.585938 13.4375 20 13.4375 C 20.414062 13.4375 20.75 13.019531 20.75 12.5 Z M 20.75 12.5 "/>
<path style=" stroke:none;fill-rule:nonzero;fill:rgb(100%,100%,100%);fill-opacity:1;" d="M 20.1875 13.40625 C 20.1875 13.40625 20.9375 14.65625 20.9375 16.6875 C 20.9375 18.71875 20.1875 19.96875 20.1875 19.96875 Z M 20.1875 13.40625 "/>
<path style=" stroke:none;fill-rule:nonzero;fill:rgb(100%,100%,100%);fill-opacity:1;" d="M 19.8125 11.59375 C 19.8125 11.59375 19.0625 10.34375 19.0625 8.3125 C 19.0625 6.28125 19.8125 5.03125 19.8125 5.03125 Z M 19.8125 11.59375 "/>
<path style=" stroke:none;fill-rule:nonzero;fill:rgb(100%,100%,100%);fill-opacity:1;" d="M 19.8125 13.40625 C 19.8125 13.40625 19.0625 14.65625 19.0625 16.6875 C 19.0625 18.71875 19.8125 19.96875 19.8125 19.96875 Z M 19.8125 13.40625 "/>
<path style=" stroke:none;fill-rule:nonzero;fill:rgb(100%,100%,100%);fill-opacity:1;" d="M 20.1875 11.59375 C 20.1875 11.59375 20.9375 10.34375 20.9375 8.3125 C 20.9375 6.28125 20.1875 5.03125 20.1875 5.03125 Z M 20.1875 11.59375 "/>
</g>
</svg>
