<?xml version="1.0" encoding="UTF-8"?>
<svg xmlns="http://www.w3.org/2000/svg" xmlns:xlink="http://www.w3.org/1999/xlink" width="70px" height="70px" viewBox="0 0 70 70" version="1.1">
<g id="surface1">
<path style=" stroke:none;fill-rule:evenodd;fill:rgb(0%,0%,0%);fill-opacity:1;" d="M 36.1875 3.824219 C 35.453125 3.390625 34.546875 3.390625 33.8125 3.824219 L 8.144531 18.992188 C 7.4375 19.410156 7 20.175781 7 21 C 7 21.824219 7.4375 22.589844 8.144531 23.007812 L 33.8125 38.175781 C 34.546875 38.609375 35.453125 38.609375 36.1875 38.175781 L 61.851562 23.007812 C 62.5625 22.589844 63 21.824219 63 21 C 63 20.175781 62.5625 19.410156 61.851562 18.992188 Z M 35 33.457031 L 13.917969 21 L 35 8.542969 L 56.078125 21 Z M 7.324219 34.980469 C 7.980469 33.871094 9.410156 33.503906 10.519531 34.15625 L 35 48.621094 L 59.480469 34.15625 C 60.589844 33.503906 62.019531 33.871094 62.675781 34.980469 C 63.332031 36.089844 62.964844 37.519531 61.851562 38.175781 L 36.1875 53.34375 C 35.453125 53.773438 34.546875 53.773438 33.8125 53.34375 L 8.144531 38.175781 C 7.035156 37.519531 6.667969 36.089844 7.324219 34.980469 Z M 7.324219 48.980469 C 7.980469 47.871094 9.410156 47.503906 10.519531 48.15625 L 35 62.621094 L 59.480469 48.15625 C 60.589844 47.503906 62.019531 47.871094 62.675781 48.980469 C 63.332031 50.089844 62.964844 51.519531 61.851562 52.175781 L 36.1875 67.34375 C 35.453125 67.773438 34.546875 67.773438 33.8125 67.34375 L 8.144531 52.175781 C 7.035156 51.519531 6.667969 50.089844 7.324219 48.980469 Z M 7.324219 48.980469 "/>
</g>
</svg>
