<?xml version="1.0" encoding="UTF-8"?>
<svg xmlns="http://www.w3.org/2000/svg" xmlns:xlink="http://www.w3.org/1999/xlink" width="35px" height="35px" viewBox="0 0 35 35" version="1.1">
<g id="surface1">
<path style=" stroke:none;fill-rule:nonzero;fill:rgb(0%,0%,0%);fill-opacity:1;" d="M 30.078125 3.828125 L 4.921875 3.828125 C 4.316406 3.828125 3.828125 4.316406 3.828125 4.921875 L 3.828125 30.078125 C 3.828125 30.683594 4.316406 31.171875 4.921875 31.171875 L 30.078125 31.171875 C 30.683594 31.171875 31.171875 30.683594 31.171875 30.078125 L 31.171875 4.921875 C 31.171875 4.316406 30.683594 3.828125 30.078125 3.828125 Z M 11.9375 27.128906 L 7.882812 27.128906 L 7.882812 14.078125 L 11.9375 14.078125 Z M 9.910156 12.292969 C 8.613281 12.292969 7.5625 11.242188 7.5625 9.941406 C 7.5625 8.644531 8.613281 7.589844 9.914062 7.589844 C 11.210938 7.589844 12.261719 8.644531 12.265625 9.941406 C 12.261719 11.242188 11.207031 12.292969 9.910156 12.292969 Z M 27.128906 27.128906 L 23.074219 27.128906 L 23.074219 20.78125 C 23.074219 19.265625 23.046875 17.320312 20.964844 17.320312 C 18.855469 17.320312 18.53125 18.96875 18.53125 20.671875 L 18.53125 27.128906 L 14.480469 27.128906 L 14.480469 14.078125 L 18.371094 14.078125 L 18.371094 15.863281 L 18.425781 15.863281 C 18.964844 14.835938 20.289062 13.753906 22.265625 13.753906 C 26.371094 13.753906 27.128906 16.457031 27.128906 19.972656 Z M 27.128906 27.128906 "/>
</g>
</svg>
