<?xml version="1.0" encoding="UTF-8"?>
<svg xmlns="http://www.w3.org/2000/svg" xmlns:xlink="http://www.w3.org/1999/xlink" width="70px" height="70px" viewBox="0 0 70 70" version="1.1">
<defs>
<linearGradient id="linear0" gradientUnits="userSpaceOnUse" x1="12.4809" y1="2" x2="12.4809" y2="22.7407" gradientTransform="matrix(2.1875,0,0,2.1875,0,0)">
<stop offset="0" style="stop-color:rgb(19.607843%,49.411765%,74.117647%);stop-opacity:1;"/>
<stop offset="1" style="stop-color:rgb(8.235294%,39.607843%,65.490196%);stop-opacity:1;"/>
</linearGradient>
<linearGradient id="linear1" gradientUnits="userSpaceOnUse" x1="19.519" y1="9.25928" x2="19.519" y2="30" gradientTransform="matrix(2.1875,0,0,2.1875,0,0)">
<stop offset="0" style="stop-color:rgb(100%,85.490196%,29.411765%);stop-opacity:1;"/>
<stop offset="1" style="stop-color:rgb(97.647059%,77.647059%,0%);stop-opacity:1;"/>
</linearGradient>
</defs>
<g id="surface1">
<path style=" stroke:none;fill-rule:evenodd;fill:url(#linear0);" d="M 28.472656 4.375 C 23.667969 4.375 19.769531 8.148438 19.769531 12.800781 L 19.769531 18.632812 L 34.832031 18.632812 L 34.832031 20.253906 L 13.078125 20.253906 C 8.269531 20.253906 4.375 24.027344 4.375 28.679688 L 4.375 41.320312 C 4.375 45.972656 8.269531 49.746094 13.078125 49.746094 L 18.097656 49.746094 L 18.097656 42.617188 C 18.097656 37.960938 21.992188 34.191406 26.800781 34.191406 L 42.867188 34.191406 C 46.933594 34.191406 50.230469 30.996094 50.230469 27.058594 L 50.230469 12.800781 C 50.230469 8.148438 46.332031 4.375 41.527344 4.375 Z M 26.464844 14.746094 C 28.128906 14.746094 29.476562 13.441406 29.476562 11.828125 C 29.476562 10.21875 28.128906 8.910156 26.464844 8.910156 C 24.800781 8.910156 23.453125 10.21875 23.453125 11.828125 C 23.453125 13.441406 24.800781 14.746094 26.464844 14.746094 Z M 26.464844 14.746094 "/>
<path style=" stroke:none;fill-rule:evenodd;fill:url(#linear1);" d="M 41.527344 65.625 C 46.332031 65.625 50.226562 61.851562 50.226562 57.199219 L 50.226562 51.367188 L 35.167969 51.367188 L 35.167969 49.746094 L 56.921875 49.746094 C 61.730469 49.746094 65.625 45.972656 65.625 41.320312 L 65.625 28.679688 C 65.625 24.027344 61.730469 20.253906 56.921875 20.253906 L 51.902344 20.253906 L 51.902344 27.382812 C 51.902344 32.039062 48.003906 35.808594 43.199219 35.808594 L 27.132812 35.808594 C 23.066406 35.808594 19.769531 39.003906 19.769531 42.941406 L 19.769531 57.199219 C 19.769531 61.851562 23.667969 65.625 28.472656 65.625 Z M 43.535156 55.253906 C 41.871094 55.253906 40.523438 56.558594 40.523438 58.171875 C 40.523438 59.78125 41.871094 61.089844 43.535156 61.089844 C 45.199219 61.089844 46.546875 59.78125 46.546875 58.171875 C 46.546875 56.558594 45.199219 55.253906 43.535156 55.253906 Z M 43.535156 55.253906 "/>
</g>
</svg>
