<?xml version="1.0" encoding="UTF-8"?>
<svg xmlns="http://www.w3.org/2000/svg" xmlns:xlink="http://www.w3.org/1999/xlink" width="70px" height="70px" viewBox="0 0 70 70" version="1.1">
<g id="surface1">
<path style=" stroke:none;fill-rule:nonzero;fill:rgb(0%,0%,0%);fill-opacity:1;" d="M 10.242188 43.75 L 23.835938 43.75 C 23.507812 40.984375 23.332031 38.046875 23.332031 35 C 23.332031 31.953125 23.507812 29.015625 23.835938 26.25 L 10.242188 26.25 C 9.277344 28.988281 8.75 31.933594 8.75 35 C 8.75 38.066406 9.277344 41.011719 10.242188 43.75 Z M 11.480469 46.667969 C 14.949219 53.652344 21.445312 58.875 29.25 60.617188 C 26.976562 57.523438 25.234375 52.609375 24.25 46.667969 Z M 59.757812 43.75 C 60.722656 41.011719 61.25 38.066406 61.25 35 C 61.25 31.933594 60.722656 28.988281 59.757812 26.25 L 46.164062 26.25 C 46.492188 29.015625 46.667969 31.953125 46.667969 35 C 46.667969 38.046875 46.492188 40.984375 46.164062 43.75 Z M 58.519531 46.667969 L 45.75 46.667969 C 44.765625 52.609375 43.023438 57.523438 40.75 60.617188 C 48.554688 58.875 55.050781 53.652344 58.519531 46.667969 Z M 26.789062 43.75 L 43.210938 43.75 C 43.558594 41.015625 43.75 38.070312 43.75 35 C 43.75 31.929688 43.558594 28.984375 43.210938 26.25 L 26.789062 26.25 C 26.441406 28.984375 26.25 31.929688 26.25 35 C 26.25 38.070312 26.441406 41.015625 26.789062 43.75 Z M 27.226562 46.667969 C 28.75 55.324219 31.84375 61.25 35 61.25 C 38.15625 61.25 41.25 55.324219 42.773438 46.667969 Z M 11.480469 23.332031 L 24.25 23.332031 C 25.234375 17.390625 26.976562 12.476562 29.25 9.382812 C 21.445312 11.125 14.949219 16.347656 11.480469 23.332031 Z M 58.519531 23.332031 C 55.050781 16.347656 48.554688 11.125 40.75 9.382812 C 43.023438 12.476562 44.765625 17.390625 45.75 23.332031 Z M 27.226562 23.332031 L 42.773438 23.332031 C 41.25 14.675781 38.15625 8.75 35 8.75 C 31.84375 8.75 28.75 14.675781 27.226562 23.332031 Z M 35 64.167969 C 18.890625 64.167969 5.832031 51.109375 5.832031 35 C 5.832031 18.890625 18.890625 5.832031 35 5.832031 C 51.109375 5.832031 64.167969 18.890625 64.167969 35 C 64.167969 51.109375 51.109375 64.167969 35 64.167969 Z M 35 64.167969 "/>
</g>
</svg>
